<svg width="1024" height="1024" viewBox="0 0 1024 1024" fill="none" xmlns="http://www.w3.org/2000/svg">
<g clip-path="url(#clip0_166_849)">
<path d="M721.231 738.385C720.205 740.436 717.641 743.513 713.538 747.615C721.744 754.795 725.846 761.462 725.846 767.615C725.846 773.769 721.744 779.41 713.538 784.538V836.846C713.538 851.205 706.872 861.462 693.538 867.615C685.333 871.718 679.179 875.821 675.077 879.923C666.872 887.103 656.103 902.487 642.769 926.077C640.718 932.231 637.641 939.923 633.538 949.154C629.436 951.205 625.333 952.231 621.231 952.231C613.026 952.231 604.308 949.667 595.077 944.538C598.154 945.564 594.051 948.128 582.769 952.231C566.359 958.385 550.974 958.897 536.615 953.769C531.487 961.974 524.308 966.077 515.077 966.077C506.872 965.051 501.231 959.923 498.154 950.692C496.103 950.692 492.513 953.256 487.385 958.385C484.308 958.385 479.179 958.897 472 959.923C464.821 961.974 459.179 962.487 455.077 961.462C445.846 940.949 436.615 930.692 427.385 930.692C423.282 930.692 419.179 933.769 415.077 939.923C407.897 938.897 398.667 936.846 387.385 933.769C384.308 928.641 378.154 922.487 368.923 915.308C372 916.333 367.385 916.846 355.077 916.846C338.667 916.846 329.436 915.821 327.385 913.769C309.949 903.513 296.615 892.231 287.385 879.923C287.385 874.795 289.949 861.462 295.077 839.923C297.128 835.821 297.128 829.667 295.077 821.462C294.051 820.436 292.513 818.385 290.462 815.308V806.077L310.462 732.231C314.564 728.128 318.667 724.026 322.769 719.923C330.974 723 343.282 726.077 359.692 729.154C363.795 732.231 368.41 737.872 373.538 746.077C377.641 759.41 379.179 772.744 378.154 786.077C376.103 796.333 375.077 800.436 375.077 798.385C378.154 803.513 382.769 810.692 388.923 819.923C393.026 816.846 399.179 816.333 407.385 818.385C411.487 824.538 418.667 832.744 428.923 843C433.026 845.051 446.359 847.103 468.923 849.154C472 851.205 475.077 853.256 478.154 855.308C483.282 853.256 493.026 851.205 507.385 849.154C512.513 847.103 519.692 844.026 528.923 839.923C530.974 835.821 533.026 830.179 535.077 823C540.205 818.897 545.846 813.256 552 806.077C554.051 805.051 557.128 804.538 561.231 804.538C566.359 792.231 574.051 787.103 584.308 789.154C589.436 787.103 597.641 782.487 608.923 775.308C610.974 772.231 613.026 767.103 615.077 759.923C616.103 756.846 616.103 751.718 615.077 744.538C615.077 737.359 613.538 728.641 610.462 718.385C607.385 708.128 598.154 695.308 582.769 679.923C577.641 677.872 570.974 674.282 562.769 669.154C558.667 665.051 552.513 659.41 544.308 652.231C541.231 652.231 538.154 651.718 535.077 650.692C530.974 645.564 515.59 641.462 488.923 638.385C486.872 635.308 482.769 632.231 476.615 629.154C472.513 630.179 465.333 631.205 455.077 632.231C449.949 624.026 440.718 614.795 427.385 604.538C422.256 604.538 414.564 604.026 404.308 603C402.256 600.949 398.667 597.359 393.538 592.231C389.436 592.231 382.769 590.692 373.538 587.615C367.385 580.436 361.744 574.282 356.615 569.154C354.564 567.103 347.385 561.462 335.077 552.231C333.026 552.231 330.462 552.231 327.385 552.231C296.615 522.487 271.487 500.436 252 486.077C248.923 483 244.821 475.821 239.692 464.538C238.667 461.462 238.667 457.359 239.692 452.231C241.744 449.154 245.846 447.615 252 447.615C252 447.615 252.513 447.103 253.538 446.077C253.538 441.974 252 436.846 248.923 430.692C246.872 424.538 243.795 416.333 239.692 406.077C238.667 403 238.667 396.333 239.692 386.077C240.718 384.026 242.769 381.462 245.846 378.385C245.846 371.205 251.487 356.846 262.769 335.308C267.897 329.154 275.59 320.949 285.846 310.692C287.897 306.59 291.487 300.436 296.615 292.231C300.718 292.231 306.872 291.718 315.077 290.692L316.615 287.615C316.615 297.872 323.795 294.795 338.154 278.385C360.718 250.692 373.026 236.333 375.077 235.308C378.154 234.282 385.333 235.821 396.615 239.923C394.564 238.897 393.538 237.872 393.538 236.846C395.59 235.82 402.769 235.308 415.077 235.308C410.974 235.308 415.59 237.872 428.923 243C446.359 245.051 461.744 246.59 475.077 247.615C478.154 250.692 481.744 254.795 485.846 259.923C489.949 256.846 494.051 255.308 498.154 255.308C506.359 255.308 514.564 260.949 522.769 272.231L539.692 295.308H547.385C563.795 280.949 577.641 268.128 588.923 256.846C588.923 251.718 593.538 245.564 602.769 238.385C603.795 235.308 604.308 232.231 604.308 229.154C604.308 227.103 603.795 224.538 602.769 221.462C597.641 216.333 592 209.154 585.846 199.923C583.795 186.59 582.769 168.641 582.769 146.077C582.769 143 581.744 138.385 579.692 132.231C577.641 125.051 577.128 118.897 578.154 113.769C584.308 105.564 594.051 94.282 607.385 79.9231C613.538 75.8205 623.282 69.6667 636.615 61.4616C645.846 71.718 656.615 83 668.923 95.3077C672 96.3333 676.103 98.3846 681.231 101.462C682.256 107.615 683.795 111.718 685.846 113.769C688.923 114.795 691.487 115.82 693.538 116.846C698.667 120.949 702.256 125.564 704.308 130.692C706.359 135.821 707.385 141.974 707.385 149.154C707.385 156.333 706.359 164.026 704.308 172.231C702.256 176.333 699.692 181.462 696.615 187.615C699.692 195.821 700.718 208.128 699.692 224.538C695.59 226.59 688.41 231.718 678.154 239.923C679.179 247.103 679.179 250.692 678.154 250.692C676.103 251.718 673.026 253.769 668.923 256.846C653.538 271.205 643.795 278.385 639.692 278.385C637.641 282.487 634.051 288.128 628.923 295.308C621.744 295.308 613.026 296.846 602.769 299.923C592.513 313.256 576.103 332.744 553.538 358.385C548.41 359.41 541.744 361.974 533.538 366.077C523.282 377.359 507.897 392.231 487.385 410.692C449.436 413.769 429.949 414.795 428.923 413.769C428.923 411.718 428.923 408.128 428.923 403C434.051 399.923 440.205 394.282 447.385 386.077C445.333 380.949 443.795 367.103 442.769 344.538L448.923 333.769C452 326.59 452.513 320.436 450.462 315.308C442.256 316.333 430.974 313.256 416.615 306.077C413.538 308.128 402.769 321.462 384.308 346.077C380.205 346.077 375.59 349.154 370.462 355.308C373.538 364.538 374.564 370.692 373.538 373.769C371.487 385.051 362.769 390.692 347.385 390.692C344.308 390.692 341.744 389.667 339.692 387.615C334.564 395.821 332 404.026 332 412.231C332 416.333 333.026 420.436 335.077 424.538C349.436 438.897 369.436 461.462 395.077 492.231C412.513 493.256 438.154 496.333 472 501.462C487.385 509.667 510.974 519.923 542.769 532.231C547.897 531.205 553.026 531.205 558.154 532.231C560.205 534.282 563.795 536.846 568.923 539.923C572 538.897 576.615 539.41 582.769 541.462C585.846 542.487 591.487 546.59 599.692 553.769C610.974 550.692 618.667 550.179 622.769 552.231C625.846 556.333 640.718 566.077 667.385 581.462C669.436 585.564 674.051 591.718 681.231 599.923C697.641 599.923 706.872 603.513 708.923 610.692L702.769 638.385C705.846 639.41 708.923 642.487 712 647.615V679.923C712 687.103 713.538 697.359 716.615 710.692C719.692 723 721.231 732.231 721.231 738.385Z" fill="black"/>
</g>
<defs>
<clipPath id="clip0_166_849">
<rect width="1024" height="1024" fill="white"/>
</clipPath>
</defs>
</svg>
