<svg width="593" height="530" viewBox="0 0 593 530" fill="none" xmlns="http://www.w3.org/2000/svg">
<path d="M68.1139 104.123C67.9692 104.412 67.6077 104.846 67.0292 105.425C68.1862 106.437 68.7646 107.377 68.7646 108.245C68.7646 109.112 68.1862 109.908 67.0292 110.631V118.006C67.0292 120.031 66.0892 121.477 64.2092 122.345C63.0523 122.923 62.1846 123.502 61.6062 124.08C60.4492 125.092 58.9308 127.262 57.0508 130.588C56.7616 131.455 56.3277 132.54 55.7492 133.842C55.1708 134.131 54.5923 134.275 54.0139 134.275C52.8569 134.275 51.6277 133.914 50.3262 133.191C50.76 133.335 50.1816 133.697 48.5908 134.275C46.2769 135.143 44.1077 135.215 42.0831 134.492C41.36 135.649 40.3477 136.228 39.0462 136.228C37.8892 136.083 37.0939 135.36 36.66 134.058C36.3708 134.058 35.8646 134.42 35.1416 135.143C34.7077 135.143 33.9846 135.215 32.9723 135.36C31.96 135.649 31.1646 135.722 30.5862 135.577C29.2846 132.685 27.9831 131.238 26.6816 131.238C26.1031 131.238 25.5246 131.672 24.9462 132.54C23.9339 132.395 22.6323 132.106 21.0416 131.672C20.6077 130.949 19.74 130.082 18.4385 129.069C18.8723 129.214 18.2216 129.286 16.4862 129.286C14.1723 129.286 12.8708 129.142 12.5816 128.852C10.1231 127.406 8.24309 125.815 6.94155 124.08C6.94155 123.357 7.30309 121.477 8.02617 118.44C8.3154 117.862 8.3154 116.994 8.02617 115.837C7.88155 115.692 7.66463 115.403 7.3754 114.969V113.668L10.1954 103.255C10.7739 102.677 11.3523 102.098 11.9308 101.52C13.0877 101.954 14.8231 102.388 17.1369 102.822C17.7154 103.255 18.3662 104.051 19.0892 105.208C19.6677 107.088 19.8846 108.968 19.74 110.848C19.4508 112.294 19.3062 112.872 19.3062 112.583C19.74 113.306 20.3908 114.318 21.2585 115.62C21.8369 115.186 22.7046 115.114 23.8616 115.403C24.44 116.271 25.4523 117.428 26.8985 118.874C27.4769 119.163 29.3569 119.452 32.5385 119.742C32.9723 120.031 33.4062 120.32 33.84 120.609C34.5631 120.32 35.9369 120.031 37.9616 119.742C38.6846 119.452 39.6969 119.018 40.9985 118.44C41.2877 117.862 41.5769 117.066 41.8662 116.054C42.5892 115.475 43.3846 114.68 44.2523 113.668C44.5416 113.523 44.9754 113.451 45.5539 113.451C46.2769 111.715 47.3616 110.992 48.8077 111.282C49.5308 110.992 50.6877 110.342 52.2785 109.329C52.5677 108.895 52.8569 108.172 53.1462 107.16C53.2908 106.726 53.2908 106.003 53.1462 104.991C53.1462 103.978 52.9292 102.749 52.4954 101.303C52.0616 99.8569 50.76 98.0492 48.5908 95.88C47.8677 95.5908 46.9277 95.0846 45.7708 94.3615C45.1923 93.7831 44.3246 92.9877 43.1677 91.9754C42.7339 91.9754 42.3 91.9031 41.8662 91.7585C41.2877 91.0354 39.1185 90.4569 35.3585 90.0231C35.0692 89.5892 34.4908 89.1554 33.6231 88.7215C33.0446 88.8662 32.0323 89.0108 30.5862 89.1554C29.8631 87.9985 28.5616 86.6969 26.6816 85.2508C25.9585 85.2508 24.8739 85.1785 23.4277 85.0339C23.1385 84.7446 22.6323 84.2385 21.9092 83.5154C21.3308 83.5154 20.3908 83.2985 19.0892 82.8646C18.2216 81.8523 17.4262 80.9846 16.7031 80.2615C16.4139 79.9723 15.4016 79.1769 13.6662 77.8754C13.3769 77.8754 13.0154 77.8754 12.5816 77.8754C8.24309 73.6815 4.70002 70.5723 1.95232 68.5477C1.51848 68.1139 0.940017 67.1015 0.21694 65.5108C0.0723242 65.0769 0.0723242 64.4985 0.21694 63.7754C0.50617 63.3415 1.08463 63.1246 1.95232 63.1246C1.95232 63.1246 2.02463 63.0523 2.16925 62.9077C2.16925 62.3292 1.95232 61.6062 1.51848 60.7385C1.22925 59.8708 0.795401 58.7139 0.21694 57.2677C0.0723242 56.8339 0.0723242 55.8939 0.21694 54.4477C0.361555 54.1585 0.650786 53.7969 1.08463 53.3631C1.08463 52.3508 1.88002 50.3262 3.47079 47.2892C4.19386 46.4215 5.27848 45.2646 6.72463 43.8185C7.01386 43.24 7.52002 42.3723 8.24309 41.2154C8.82155 41.2154 9.68925 41.1431 10.8462 40.9985L11.0631 40.5646C11.0631 42.0108 12.0754 41.5769 14.1 39.2631C17.2816 35.3585 19.0169 33.3339 19.3062 33.1892C19.74 33.0446 20.7523 33.2615 22.3431 33.84C22.0539 33.6954 21.9092 33.5508 21.9092 33.4062C22.1985 33.2615 23.2108 33.1892 24.9462 33.1892C24.3677 33.1892 25.0185 33.5508 26.8985 34.2739C29.3569 34.5631 31.5262 34.78 33.4062 34.9246C33.84 35.3585 34.3462 35.9369 34.9246 36.66C35.5031 36.2262 36.0816 36.0092 36.66 36.0092C37.8169 36.0092 38.9739 36.8046 40.1308 38.3954L42.5169 41.6492H43.6016C45.9154 39.6246 47.8677 37.8169 49.4585 36.2262C49.4585 35.5031 50.1092 34.6354 51.4108 33.6231C51.5554 33.1892 51.6277 32.7554 51.6277 32.3215C51.6277 32.0323 51.5554 31.6708 51.4108 31.2369C50.6877 30.5139 49.8923 29.5015 49.0246 28.2C48.7354 26.32 48.5908 23.7892 48.5908 20.6077C48.5908 20.1739 48.4462 19.5231 48.1569 18.6554C47.8677 17.6431 47.7954 16.7754 47.94 16.0523C48.8077 14.8954 50.1816 13.3046 52.0616 11.28C52.9292 10.7015 54.3031 9.83386 56.1831 8.67693C57.4846 10.1231 59.0031 11.7139 60.7385 13.4492C61.1723 13.5939 61.7508 13.8831 62.4739 14.3169C62.6185 15.1846 62.8354 15.7631 63.1246 16.0523C63.5585 16.1969 63.92 16.3415 64.2092 16.4862C64.9323 17.0646 65.4385 17.7154 65.7277 18.4385C66.0169 19.1615 66.1616 20.0292 66.1616 21.0416C66.1616 22.0539 66.0169 23.1385 65.7277 24.2954C65.4385 24.8739 65.0769 25.5969 64.6431 26.4646C65.0769 27.6215 65.2216 29.3569 65.0769 31.6708C64.4985 31.96 63.4862 32.6831 62.04 33.84C62.1846 34.8523 62.1846 35.3585 62.04 35.3585C61.7508 35.5031 61.3169 35.7923 60.7385 36.2262C58.5692 38.2508 57.1954 39.2631 56.6169 39.2631C56.3277 39.8415 55.8216 40.6369 55.0985 41.6492C54.0862 41.6492 52.8569 41.8662 51.4108 42.3C49.9646 44.18 47.6508 46.9277 44.4692 50.5431C43.7462 50.6877 42.8062 51.0492 41.6492 51.6277C40.2031 53.2185 38.0339 55.3154 35.1416 57.9185C29.7908 58.3523 27.0431 58.4969 26.8985 58.3523C26.8985 58.0631 26.8985 57.5569 26.8985 56.8339C27.6216 56.4 28.4892 55.6046 29.5016 54.4477C29.2123 53.7246 28.9954 51.7723 28.8508 48.5908L29.7185 47.0723C30.1523 46.06 30.2246 45.1923 29.9354 44.4692C28.7785 44.6139 27.1877 44.18 25.1631 43.1677C24.7292 43.4569 23.2108 45.3369 20.6077 48.8077C20.0292 48.8077 19.3785 49.2415 18.6554 50.1092C19.0892 51.4108 19.2339 52.2785 19.0892 52.7123C18.8 54.3031 17.5708 55.0985 15.4016 55.0985C14.9677 55.0985 14.6062 54.9539 14.3169 54.6646C13.5939 55.8215 13.2323 56.9785 13.2323 58.1354C13.2323 58.7139 13.3769 59.2923 13.6662 59.8708C15.6908 61.8954 18.5108 65.0769 22.1262 69.4154C24.5846 69.56 28.2 69.9939 32.9723 70.7169C35.1416 71.8739 38.4677 73.32 42.9508 75.0554C43.6739 74.9108 44.3969 74.9108 45.12 75.0554C45.4092 75.3446 45.9154 75.7062 46.6385 76.14C47.0723 75.9954 47.7231 76.0677 48.5908 76.3569C49.0246 76.5015 49.82 77.08 50.9769 78.0923C52.5677 77.6585 53.6523 77.5862 54.2308 77.8754C54.6646 78.4539 56.7616 79.8277 60.5216 81.9969C60.8108 82.5754 61.4616 83.4431 62.4739 84.6C64.7877 84.6 66.0892 85.1062 66.3785 86.1185L65.5108 90.0231C65.9446 90.1677 66.3785 90.6015 66.8123 91.3246V95.88C66.8123 96.8923 67.0292 98.3385 67.4631 100.218C67.8969 101.954 68.1139 103.255 68.1139 104.123ZM147.743 27.1154C146.442 28.4169 145.574 30.4415 145.14 33.1892C144.851 33.6231 144.562 33.9123 144.273 34.0569C143.549 34.2015 142.826 34.0569 142.103 33.6231C141.236 33.3339 140.223 33.9123 139.066 35.3585C138.054 36.8046 137.259 37.5277 136.68 37.5277C136.246 37.5277 135.596 37.0215 134.728 36.0092C133.86 36.1539 132.776 35.4308 131.474 33.84C130.173 32.2492 129.16 31.3092 128.437 31.02C127.28 30.7308 126.196 30.5862 125.183 30.5862C124.316 30.5862 123.52 30.7308 122.797 31.02C122.653 32.0323 122.291 33.2615 121.713 34.7077C120.989 35.2862 120.266 36.1539 119.543 37.3108C119.543 37.8892 119.471 38.8292 119.326 40.1308C118.459 40.2754 117.302 40.6369 115.856 41.2154L113.686 45.12C113.976 45.4092 114.12 45.7708 114.12 46.2046C114.12 46.7831 113.397 48.0846 111.951 50.1092C110.649 51.9892 110.143 53.7246 110.433 55.3154C111.734 56.4723 112.385 57.7015 112.385 59.0031C112.385 59.7262 112.096 60.4492 111.517 61.1723C110.939 61.7508 110.216 62.6185 109.348 63.7754C109.493 64.7877 109.42 66.4508 109.131 68.7646C108.842 69.7769 107.034 72.2354 103.708 76.14C103.129 77.1523 102.913 78.3815 103.057 79.8277C103.346 81.2739 103.491 82.3585 103.491 83.0815C103.057 84.5277 102.623 85.8292 102.189 86.9862C100.599 89.3 100.02 90.9631 100.454 91.9754C100.743 91.6862 102.406 90.0231 105.443 86.9862L106.528 85.6846C107.685 84.5277 108.986 83.4431 110.433 82.4308C111.156 82.2862 112.096 82.0692 113.253 81.78C117.013 80.4785 119.182 79.9723 119.76 80.2615C120.483 80.5508 121.351 81.0569 122.363 81.78C123.665 84.2385 124.099 86.6246 123.665 88.9385C123.52 89.2277 123.376 89.7339 123.231 90.4569C123.231 91.0354 123.086 92.12 122.797 93.7108C122.653 94.4339 122.291 95.4462 121.713 96.7477C121.423 96.8923 120.773 97.2539 119.76 97.8323C119.76 98.1215 119.905 98.7 120.194 99.5677C120.628 100.435 120.773 101.086 120.628 101.52C120.049 102.098 119.326 103.038 118.459 104.34C118.459 104.34 118.748 104.918 119.326 106.075C120.049 107.232 120.194 108.028 119.76 108.462L116.289 114.318C116.289 114.752 116.434 115.186 116.723 115.62C117.013 114.463 117.736 114.102 118.893 114.535C119.76 114.969 120.411 115.62 120.845 116.488C121.423 115.62 122.58 114.608 124.316 113.451C125.906 113.017 127.28 112.8 128.437 112.8C128.871 113.089 129.088 113.812 129.088 114.969C129.666 115.258 130.245 115.692 130.823 116.271C130.968 116.705 130.968 117.138 130.823 117.572C129.088 118.729 127.569 119.958 126.268 121.26C125.545 122.851 123.954 124.658 121.496 126.683C120.194 127.117 119.326 127.84 118.893 128.852C117.591 128.852 116.289 128.708 114.988 128.418C114.409 128.563 113.397 128.708 111.951 128.852C110.794 127.551 109.926 126.683 109.348 126.249C106.6 125.671 104.648 123.574 103.491 119.958C103.057 119.525 102.623 118.946 102.189 118.223C101.9 115.331 102.334 113.451 103.491 112.583C102.768 111.571 102.406 110.703 102.406 109.98C102.406 109.112 103.491 107.883 105.66 106.292C107.974 104.557 109.203 103.255 109.348 102.388C109.059 100.942 109.059 98.7723 109.348 95.88C109.926 94 110.216 93.3492 110.216 93.9277C109.348 92.7708 108.914 92.12 108.914 91.9754C108.914 91.6862 109.42 90.9631 110.433 89.8062C111.445 88.5046 111.806 87.42 111.517 86.5523C106.456 88.2877 101.973 91.6862 98.0679 96.7477C98.5017 99.9292 98.574 101.809 98.2848 102.388C97.7064 103.255 96.911 104.702 95.8987 106.726C96.0433 108.028 96.1156 109.98 96.1156 112.583C95.971 113.017 95.1033 114.825 93.5125 118.006C95.1033 119.018 95.754 119.742 95.4648 120.175C95.1756 120.32 94.6694 120.682 93.9464 121.26C93.8017 121.983 93.6571 122.923 93.5125 124.08C92.7894 124.948 91.7048 125.526 90.2587 125.815C89.8248 126.538 89.0294 127.406 87.8725 128.418C88.451 129.286 88.3787 130.082 87.6556 130.805C86.9325 131.528 85.1248 130.226 82.2325 126.9C82.0879 126.611 81.9433 126.322 81.7987 126.032C81.654 124.152 81.7987 122.634 82.2325 121.477C82.811 121.332 83.3894 120.971 83.9679 120.392C84.691 119.091 85.0525 118.078 85.0525 117.355V111.715C85.3417 111.282 86.0648 110.342 87.2217 108.895C86.7879 106.871 86.6433 105.642 86.7879 105.208C87.3664 104.629 88.0894 103.472 88.9571 101.737C88.8125 101.303 88.451 100.291 87.8725 98.7L90.0417 91.9754C89.7525 90.5292 89.7525 89.5169 90.0417 88.9385C90.6202 88.2154 91.3433 87.2031 92.211 85.9015C92.5002 85.4677 92.5002 84.3831 92.211 82.6477C91.9217 81.2015 92.211 79.2492 93.0787 76.7908C93.0787 76.0677 93.151 75.0554 93.2956 73.7539C94.0187 73.32 94.814 72.4523 95.6817 71.1508C95.971 70.7169 96.1879 68.4754 96.3325 64.4262C96.1879 63.9923 96.0433 63.2692 95.8987 62.2569C96.0433 61.6785 97.4171 59.7985 100.02 56.6169C99.731 52.7123 99.9479 50.3985 100.671 49.6754L103.708 46.6385C104.431 45.6262 105.371 44.18 106.528 42.3C106.383 41.1431 106.383 39.48 106.528 37.3108C107.106 36.2985 107.829 34.9969 108.697 33.4062C109.131 31.6708 110.216 30.1523 111.951 28.8508C112.674 27.8385 113.686 26.32 114.988 24.2954C116.289 22.8492 118.097 21.3308 120.411 19.74C121.279 19.5954 122.58 19.1615 124.316 18.4385C125.617 17.5708 127.642 16.4139 130.389 14.9677C132.125 14.5339 134.511 15.1123 137.548 16.7031C140.006 16.7031 141.308 16.7754 141.453 16.92C144.2 19.2339 146.297 21.4754 147.743 23.6446C148.177 24.5123 148.177 25.6692 147.743 27.1154ZM200.32 99.1339C200.32 99.7123 199.958 100.652 199.235 101.954C199.235 102.388 199.163 102.822 199.018 103.255C198.295 103.834 197.428 104.629 196.415 105.642C193.812 107.955 192.077 110.052 191.209 111.932C190.775 112.655 189.112 114.752 186.22 118.223C185.931 118.078 185.497 118.151 184.918 118.44C184.051 119.308 182.749 120.537 181.014 122.128C180.725 122.272 179.929 122.489 178.628 122.778C178.338 123.068 177.977 123.429 177.543 123.863C176.386 124.297 174.795 124.658 172.771 124.948C172.482 125.092 172.192 125.309 171.903 125.598C170.746 125.743 170.023 125.743 169.734 125.598C168.722 124.731 167.275 123.429 165.395 121.694C165.395 121.26 165.323 120.682 165.178 119.958C164.166 118.512 163.805 116.994 164.094 115.403C165.251 114.68 165.685 111.932 165.395 107.16C165.251 106.871 165.106 106.582 164.962 106.292C164.094 107.015 163.515 108.245 163.226 109.98C163.082 111.571 162.575 112.655 161.708 113.234C160.84 113.812 159.249 114.391 156.935 114.969C157.08 116.415 156.285 117.862 154.549 119.308C152.958 120.609 151.44 121.26 149.994 121.26L149.56 123.863C149.415 124.152 148.403 124.514 146.523 124.948C146.089 125.526 145.511 126.177 144.788 126.9C144.354 127.045 143.775 127.045 143.052 126.9C142.908 126.611 142.691 126.177 142.402 125.598C141.678 125.02 140.738 124.008 139.582 122.562C139.292 122.128 139.148 121.405 139.148 120.392C139.148 119.38 139.292 118.151 139.582 116.705C139.726 116.415 139.943 116.054 140.232 115.62C140.232 113.017 140.594 109.98 141.317 106.509C141.751 106.22 142.908 105.497 144.788 104.34C144.932 103.906 145.005 103.4 145.005 102.822C145.005 102.243 144.86 101.375 144.571 100.218C144.282 99.0615 144.137 98.1939 144.137 97.6154C144.137 97.1815 144.209 96.82 144.354 96.5308C145.655 95.2292 147.246 93.4939 149.126 91.3246C150.283 88.4323 151.802 85.8292 153.682 83.5154C154.549 82.3585 155.995 81.6354 158.02 81.3462C159.466 78.5985 161.346 76.5015 163.66 75.0554C164.238 74.9108 164.962 74.6215 165.829 74.1877C166.263 73.6092 167.131 72.5969 168.432 71.1508C168.866 71.0062 169.517 71.0062 170.385 71.1508C170.529 71.44 170.818 71.6569 171.252 71.8015C172.265 71.5123 173.783 71.2954 175.808 71.1508C175.952 71.2954 176.314 71.6569 176.892 72.2354C177.471 72.2354 178.049 72.2354 178.628 72.2354L179.278 72.8862C179.278 73.7539 179.351 75.0554 179.495 76.7908C180.652 79.1046 180.942 80.9123 180.363 82.2139C179.64 83.66 178.628 85.3954 177.326 87.42C177.905 87.9985 178.122 89.2277 177.977 91.1077C177.688 91.3969 177.037 92.0477 176.025 93.06C176.169 92.9154 176.386 93.4939 176.675 94.7954C177.543 97.2539 177.182 99.4231 175.591 101.303C176.025 101.592 176.675 102.026 177.543 102.605C177.398 104.051 177.326 105.425 177.326 106.726C177.326 110.486 178.122 112.945 179.712 114.102C180.725 113.378 182.098 112.583 183.834 111.715C184.268 111.137 185.135 110.197 186.437 108.895L189.04 107.16C190.052 105.714 192.222 103.472 195.548 100.435C196.126 99.8569 196.849 99.2785 197.717 98.7C198.729 97.8323 199.597 97.9769 200.32 99.1339ZM166.48 101.52V89.3723C165.902 88.9385 165.54 88.7215 165.395 88.7215C164.672 90.3123 163.371 92.3369 161.491 94.7954C161.202 95.0846 160.478 95.3015 159.322 95.4462C158.309 96.6031 156.863 98.4108 154.983 100.869C154.983 101.592 154.549 102.388 153.682 103.255C153.248 105.28 153.103 106.726 153.248 107.594C154.405 108.172 155.562 108.462 156.718 108.462C158.309 108.462 159.683 107.738 160.84 106.292C161.418 105.28 162.142 103.906 163.009 102.171C163.443 102.171 164.022 102.098 164.745 101.954C165.468 101.665 166.046 101.52 166.48 101.52ZM449.429 234.06C449.718 234.928 449.718 236.374 449.429 238.398C449.284 238.688 449.068 239.122 448.778 239.7C448.778 242.014 448.778 243.171 448.778 243.171C448.634 244.906 448.055 245.774 447.043 245.774C446.609 245.774 446.103 245.629 445.524 245.34C445.38 245.918 444.946 246.642 444.223 247.509C444.368 248.377 444.368 249.245 444.223 250.112C444.946 251.414 445.308 252.571 445.308 253.583C445.308 255.463 444.223 257.126 442.054 258.572C439.74 259.295 437.354 260.597 434.895 262.477C434.317 263.2 433.088 265.586 431.208 269.635C430.629 269.925 429.038 271.805 426.435 275.275C426.001 275.854 425.061 276.649 423.615 277.662C421.591 277.951 418.481 278.891 414.288 280.482C413.854 280.771 412.986 281.349 411.684 282.217C410.528 283.085 408.72 284.242 406.261 285.688L392.812 287.206C391.655 288.074 390.643 288.508 389.775 288.508C388.908 288.508 388.112 288.218 387.389 287.64C387.1 288.218 386.521 289.014 385.654 290.026C385.075 290.46 384.28 290.532 383.268 290.243C382.544 290.098 381.604 289.809 380.448 289.375C377.844 289.086 375.603 288.435 373.723 287.423C373.289 287.423 372.566 287.351 371.554 287.206C368.806 286.194 366.348 285.977 364.178 286.555C360.129 287.568 356.152 287.278 352.247 285.688C351.669 285.688 348.777 285.471 343.571 285.037C342.992 284.748 341.908 284.386 340.317 283.952C334.677 282.072 330.772 280.482 328.603 279.18C327.591 279.035 326.289 278.602 324.698 277.878C321.661 275.131 317.901 272.383 313.418 269.635C312.84 269.78 311.972 269.708 310.815 269.418C308.646 268.406 305.392 266.671 301.054 264.212C298.74 262.622 297.004 261.32 295.848 260.308C295.414 259.874 294.112 257.705 291.943 253.8C291.364 252.932 289.34 251.342 285.869 249.028C283.989 248.015 281.386 246.28 278.06 243.822C276.469 241.508 273.938 237.965 270.468 233.192C270.323 232.325 269.961 231.385 269.383 230.372C268.081 228.492 265.912 225.889 262.875 222.563C262.441 221.406 261.863 219.743 261.14 217.574C258.103 213.669 255.789 209.982 254.198 206.511C254.054 205.498 253.837 204.197 253.548 202.606C252.68 201.883 251.668 200.798 250.511 199.352C248.197 196.315 247.763 194.146 249.209 192.845C247.763 191.398 246.461 189.808 245.304 188.072C245.015 186.192 244.22 183.734 242.918 180.697C242.34 179.829 241.472 178.383 240.315 176.358L238.797 165.512L237.278 161.608C236.989 160.306 236.411 158.137 235.543 155.1C235.398 154.955 235.181 154.811 234.892 154.666C234.314 152.063 233.446 149.532 232.289 147.074C231.711 146.495 231.06 145.555 230.337 144.254C230.481 144.543 230.554 143.097 230.554 139.915C230.554 138.903 230.12 137.674 229.252 136.228C228.384 134.782 227.372 132.612 226.215 129.72C226.215 127.84 225.637 124.731 224.48 120.392C224.191 119.814 223.54 118.223 222.528 115.62C221.949 114.897 221.371 114.029 220.792 113.017C220.214 112.005 219.635 110.486 219.057 108.462C218.478 108.028 217.538 107.232 216.237 106.075C215.658 107.377 214.791 109.329 213.634 111.932C213.055 112.511 212.332 113.523 211.464 114.969C210.741 116.415 209.657 118.512 208.211 121.26C207.343 121.838 206.114 122.851 204.523 124.297C204.378 124.875 204.017 125.743 203.438 126.9C203.004 127.334 201.486 127.045 198.883 126.032C199.172 126.032 198.377 126.177 196.497 126.466C195.918 126.611 195.195 126.466 194.328 126.032C194.038 125.309 193.966 124.658 194.111 124.08C194.255 123.791 194.761 123.14 195.629 122.128C195.774 121.405 196.858 119.525 198.883 116.488C199.028 115.909 199.389 114.969 199.968 113.668C206.331 108.172 209.801 103.472 210.38 99.5677C209.801 98.5554 209.512 98.1939 209.512 98.4831C209.512 99.3508 209.801 97.5431 210.38 93.06C210.524 92.7708 210.958 92.2646 211.681 91.5415C211.971 90.6739 212.26 89.5169 212.549 88.0708C212.404 85.6123 212.549 81.9246 212.983 77.0077C213.706 74.8385 214.574 71.8739 215.586 68.1139C215.297 65.9446 215.731 63.2692 216.888 60.0877C216.598 59.9431 216.237 59.5815 215.803 59.0031C215.224 53.5077 216.164 50.1815 218.623 49.0246C219.057 46.5662 219.997 43.5292 221.443 39.9139C221.009 38.9015 220.937 38.1062 221.226 37.5277L224.914 27.3323C225.637 26.1754 226.649 24.5123 227.951 22.3431C228.095 21.0415 228.963 19.4508 230.554 17.5708C231.711 15.2569 233.735 11.7139 236.628 6.94155C236.917 6.5077 239.737 4.77232 245.088 1.7354C245.521 1.7354 246.1 1.66309 246.823 1.51847C248.703 0.506163 251.523 0.289241 255.283 0.8677C260.2 1.59078 262.658 4.33847 262.658 9.11078C262.658 13.16 260.851 15.8354 257.235 17.1369C255.934 17.5708 253.331 17.2815 249.426 16.2692C248.558 16.1246 247.184 15.4015 245.304 14.1C243.569 14.1 241.617 14.7508 239.448 16.0523C239.014 16.4862 238.291 17.4262 237.278 18.8723C236.411 20.7523 234.675 22.9215 232.072 25.38C231.204 27.26 229.903 30.4415 228.168 34.9246C227.878 36.2262 227.517 38.3954 227.083 41.4323C226.794 42.7339 226.288 45.12 225.564 48.5908C225.564 50.0369 225.492 52.1339 225.348 54.8815C224.624 56.7615 223.974 59.4369 223.395 62.9077C223.251 64.2092 222.961 66.0892 222.528 68.5477C222.528 69.1262 222.021 69.7046 221.009 70.2831C221.009 71.7292 220.864 73.9708 220.575 77.0077C220.431 77.2969 220.141 77.7308 219.708 78.3092C219.563 79.1769 219.635 79.7554 219.924 80.0446C220.358 79.9 221.081 79.5385 222.094 78.96C223.395 76.3569 225.637 74.26 228.818 72.6692C229.252 72.38 230.048 71.9462 231.204 71.3677C232.361 71.3677 234.169 71.8015 236.628 72.6692C237.495 72.9585 237.857 73.7539 237.712 75.0554C237.712 76.2123 237.712 77.4415 237.712 78.7431C237.712 81.4908 237.351 84.7446 236.628 88.5046C235.326 89.3723 233.446 90.9631 230.988 93.2769C230.554 94.1446 229.975 95.3015 229.252 96.7477L223.612 102.388C227.806 103.689 230.626 108.1 232.072 115.62C232.506 116.343 233.084 117.789 233.808 119.958C234.531 123.429 235.688 128.563 237.278 135.36C237.423 135.938 237.784 136.806 238.363 137.963C238.941 138.108 239.448 138.469 239.881 139.048C240.46 141.072 241.4 144.037 242.701 147.942C243.714 149.388 244.871 151.485 246.172 154.232C246.606 156.112 247.691 159.583 249.426 164.645C249.571 165.368 250.004 168.26 250.728 173.322C250.872 174.478 251.451 176.214 252.463 178.528C253.041 179.106 253.692 179.974 254.415 181.131C255.428 183.155 256.295 185.614 257.018 188.506C259.043 190.097 260.634 192.7 261.791 196.315C261.791 197.183 261.863 198.412 262.008 200.003C262.875 201.305 264.032 203.402 265.478 206.294C265.334 207.162 265.406 208.535 265.695 210.415C266.274 210.849 267.214 211.572 268.515 212.585C270.395 214.465 272.203 217.212 273.938 220.828C275.818 224.443 277.481 226.974 278.928 228.42C279.795 229.577 281.458 231.385 283.917 233.843C285.074 235.434 287.171 237.965 290.208 241.435C291.654 242.158 293.751 243.677 296.498 245.991C297.077 246.425 298.089 247.292 299.535 248.594C300.837 250.474 303.512 252.86 307.561 255.752C308.429 255.752 309.369 255.897 310.381 256.186C310.815 257.054 311.755 258.066 313.201 259.223C314.648 260.525 316.889 262.115 319.926 263.995C321.951 265.586 325.06 267.032 329.254 268.334C330.411 269.202 332.074 270.142 334.243 271.154C335.4 271.732 337.569 272.528 340.751 273.54C341.329 273.829 343.426 274.118 347.041 274.408C347.62 274.697 348.56 275.131 349.861 275.709C350.295 275.709 350.946 275.854 351.814 276.143C352.681 276.432 353.983 276.938 355.718 277.662C356.586 277.662 357.96 277.878 359.84 278.312C361.72 279.758 364.106 280.626 366.998 280.915L370.903 280.265C371.192 279.975 371.698 279.614 372.421 279.18C373 279.18 373.506 279.18 373.94 279.18C374.663 279.614 375.748 280.12 377.194 280.698C377.338 280.988 377.7 281.422 378.278 282C379.58 282.723 380.592 283.085 381.315 283.085C382.183 282.94 383.991 282.362 386.738 281.349C387.172 279.903 389.269 279.252 393.029 279.397C393.608 279.397 394.981 279.325 397.151 279.18C398.452 279.325 400.115 279.035 402.14 278.312C402.284 277.589 402.501 277.011 402.791 276.577C403.224 276.143 403.658 275.926 404.092 275.926C404.526 275.926 405.104 276.071 405.827 276.36C406.551 276.794 407.129 276.938 407.563 276.794C408.864 276.215 410.744 275.42 413.203 274.408C414.071 274.408 415.444 274.118 417.324 273.54C417.903 272.528 418.988 271.226 420.578 269.635C421.446 269.346 422.82 268.695 424.7 267.683C425.857 266.671 427.086 265.514 428.388 264.212C428.966 262.911 429.978 261.175 431.424 259.006C433.883 257.415 436.631 254.885 439.667 251.414C439.812 250.257 440.535 248.883 441.837 247.292C440.969 243.966 440.608 241.435 440.752 239.7C440.897 238.832 441.475 234.855 442.487 227.769C441.764 225.022 441.403 224.154 441.403 225.166V217.14C440.969 216.562 440.391 215.622 439.667 214.32C439.523 213.452 439.234 212.151 438.8 210.415C438.366 209.403 437.426 207.523 435.98 204.775C435.401 203.474 433.521 201.811 430.34 199.786C428.894 198.774 428.171 197.762 428.171 196.749C428.171 194.435 430.195 192.555 434.244 191.109C435.691 190.675 436.92 191.326 437.932 193.062C438.077 193.64 438.366 194.725 438.8 196.315C439.089 196.894 439.668 198.051 440.535 199.786C440.68 200.22 440.608 201.015 440.318 202.172C440.752 203.618 441.692 205.788 443.138 208.68C443.861 209.258 444.874 210.271 446.175 211.717C447.911 214.609 448.561 220.538 448.128 229.505C448.272 228.348 448.706 229.866 449.429 234.06ZM230.771 83.5154C229.758 82.2139 227.878 81.78 225.131 82.2139C223.829 82.3585 222.238 83.4431 220.358 85.4677C218.478 87.3477 217.177 88.4323 216.454 88.7215C215.875 89.7339 215.586 92.4092 215.586 96.7477C220.358 96.8923 224.769 94.6508 228.818 90.0231C230.264 88.2877 230.915 86.1185 230.771 83.5154ZM291.621 108.895C292.344 109.763 292.416 110.558 291.838 111.282C291.404 111.715 290.826 112.366 290.102 113.234C290.102 113.812 290.03 114.68 289.886 115.837C289.018 116.271 287.716 116.994 285.981 118.006C285.258 118.44 284.029 119.525 282.293 121.26C282.293 121.694 281.859 122.417 280.992 123.429C279.256 123.863 277.087 124.442 274.484 125.165C274.05 125.454 273.255 126.105 272.098 127.117C271.086 128.274 270.29 128.852 269.712 128.852C269.567 128.418 268.41 127.334 266.241 125.598C266.096 125.888 265.952 126.466 265.807 127.334C265.229 127.912 264.578 128.202 263.855 128.202C262.987 128.202 262.192 127.912 261.469 127.334C261.324 127.912 261.035 128.708 260.601 129.72C260.022 129.72 259.155 129.575 257.998 129.286C257.275 129.575 256.19 129.72 254.744 129.72C252.141 128.418 250.839 126.683 250.839 124.514C250.839 124.08 250.984 123.574 251.273 122.995C250.839 121.405 250.912 119.235 251.49 116.488C252.213 113.017 252.647 110.703 252.792 109.546C252.936 107.232 253.37 103.762 254.093 99.1339C254.527 98.2662 255.25 97.3985 256.262 96.5308C256.696 95.6631 257.564 94.7231 258.866 93.7108C258.576 92.8431 258.504 91.6862 258.649 90.24C260.529 88.2154 263.566 85.2508 267.759 81.3462C269.206 81.0569 270.579 79.6831 271.881 77.2246C272.17 76.5015 273.472 75.2 275.786 73.32C277.521 73.0308 280.052 72.6692 283.378 72.2354C283.378 72.6692 283.667 73.6092 284.246 75.0554C284.824 75.2 285.475 75.5615 286.198 76.14C286.198 77.2969 286.198 78.5985 286.198 80.0446C286.342 80.3339 286.559 80.6231 286.849 80.9123C286.704 80.1892 286.487 81.7077 286.198 85.4677C285.764 85.7569 284.752 86.9862 283.161 89.1554C283.161 90.1677 283.233 91.4692 283.378 93.06L279.473 96.3139C279.473 96.6031 279.256 97.1092 278.822 97.8323C277.955 97.8323 276.798 98.1939 275.352 98.9169C275.352 99.4954 274.99 100.074 274.267 100.652C273.11 101.086 271.302 101.665 268.844 102.388C268.699 102.822 268.41 103.4 267.976 104.123C267.542 104.123 266.892 104.195 266.024 104.34C265.301 104.485 264.795 104.557 264.506 104.557C264.216 106.582 263.855 109.257 263.421 112.583C263.132 112.728 262.77 113.017 262.336 113.451C262.915 114.463 263.782 115.982 264.939 118.006C265.662 117.717 267.036 117.789 269.061 118.223C270.218 117.5 271.953 116.632 274.267 115.62C275.858 115.765 278.389 115.403 281.859 114.535C282.727 113.668 283.884 112.583 285.33 111.282C286.198 111.282 287.716 110.486 289.886 108.895C290.319 108.751 290.898 108.751 291.621 108.895ZM273.182 87.8539C273.616 84.5277 273.255 82.7923 272.098 82.6477C271.664 83.3708 271.013 83.8046 270.146 83.9492H268.193C268.338 84.8169 268.049 85.7569 267.326 86.7692C266.747 87.7815 266.024 88.2877 265.156 88.2877C265.446 88.5769 265.59 88.9385 265.59 89.3723C265.59 89.9508 265.012 90.5292 263.855 91.1077C264.289 92.9877 264.506 94.0723 264.506 94.3615C263.927 95.6631 263.638 96.4585 263.638 96.7477C264.795 95.88 266.386 94.8677 268.41 93.7108L273.182 87.8539ZM362.757 27.3323C362.179 28.0554 359.576 29.5739 354.948 31.8877C353.646 32.6108 352.851 32.9723 352.562 32.9723L344.102 31.6708C340.342 31.0923 337.522 31.0923 335.642 31.6708C332.46 32.6831 329.496 35.4308 326.748 39.9139C325.591 41.5046 324 43.9631 321.976 47.2892C321.686 48.5908 321.397 50.3985 321.108 52.7123C320.53 53.2908 319.734 54.1585 318.722 55.3154C317.999 58.0631 316.842 61.6785 315.251 66.1615C314.962 67.7523 314.6 70.0662 314.166 73.1031C314.311 76.5739 314.166 78.5985 313.733 79.1769C313.877 79.9 313.95 80.6231 313.95 81.3462C313.95 83.0815 313.226 84.9615 311.78 86.9862C312.07 87.9985 312.214 88.8662 312.214 89.5892C312.214 90.1677 312.142 90.6739 311.997 91.1077C311.419 91.8308 310.623 92.6985 309.611 93.7108C309.756 93.7108 309.828 94.2892 309.828 95.4462C309.828 96.3139 309.683 97.4708 309.394 98.9169C309.25 99.3508 308.96 99.7123 308.526 100.002C308.526 100.869 308.31 102.46 307.876 104.774C307.153 107.811 306.719 108.751 306.574 107.594C307.153 111.354 306.791 114.825 305.49 118.006C305.634 118.295 305.851 118.729 306.14 119.308C305.706 121.622 304.911 125.02 303.754 129.503C303.176 131.094 302.525 132.974 301.802 135.143L300.5 146.64C300.211 148.665 299.633 152.135 298.765 157.052C297.897 158.065 296.74 159.583 295.294 161.608C295.15 162.62 294.86 163.922 294.426 165.512C293.559 166.38 292.257 167.682 290.522 169.417C289.943 170.429 289.003 171.875 287.702 173.755C286.545 174.189 284.954 175.202 282.93 176.792C281.917 177.949 280.326 179.829 278.157 182.432C276.566 183.155 274.47 184.095 271.866 185.252C269.986 186.409 267.311 188.072 263.84 190.242C262.105 190.675 259.068 191.398 254.73 192.411C253.717 192.7 252.488 192.989 251.042 193.278C249.885 192.989 248.366 192.628 246.486 192.194C245.908 192.628 244.896 193.134 243.45 193.712C241.28 193.857 239.039 193.568 236.725 192.845C236.291 192.7 235.857 192.411 235.423 191.977C234.266 191.832 233.037 191.471 231.736 190.892C230.868 190.892 229.783 190.603 228.482 190.025C222.119 184.529 218.937 180.118 218.937 176.792C218.937 174.912 221.685 173.972 227.18 173.972C227.903 173.828 229.566 174.768 232.17 176.792C233.182 177.515 234.99 178.889 237.593 180.914C238.171 181.203 239.762 181.998 242.365 183.3L253.645 184.602C257.26 185.035 262.539 183.3 269.48 179.395C271.65 178.672 275.193 176.069 280.11 171.586C281.411 170.285 283.074 167.537 285.099 163.343C285.677 160.885 286.256 159.005 286.834 157.703C287.268 156.546 288.063 154.811 289.22 152.497C289.799 150.617 290.594 147.797 291.606 144.037C292.474 142.012 293.414 139.843 294.426 137.529L296.813 118.223C297.246 117.789 297.463 117.428 297.463 117.138C296.885 115.692 296.885 114.463 297.463 113.451C298.042 112.438 298.548 111.354 298.982 110.197C298.982 109.618 298.91 108.895 298.765 108.028L298.982 100.652C298.982 99.9292 299.777 96.4585 301.368 90.24C301.368 88.9385 301.513 86.9862 301.802 84.3831C302.525 83.5154 303.393 82.0692 304.405 80.0446C304.405 78.1646 304.622 75.2723 305.056 71.3677C305.49 70.9339 305.851 70.3554 306.14 69.6323C306.285 69.1985 306.285 68.1862 306.14 66.5954C306.285 67.8969 306.863 66.0892 307.876 61.1723C308.165 60.16 308.454 59.0754 308.743 57.9185C309.322 57.1954 309.973 56.0385 310.696 54.4477C310.551 53.58 311.057 52.5677 312.214 51.4108C312.214 50.5431 312.359 49.1692 312.648 47.2892C313.516 46.4215 314.6 43.8185 315.902 39.48C316.046 38.6123 316.697 37.7446 317.854 36.8769C319.156 36.0092 321.036 34.4185 323.494 32.1046C324.94 29.9354 327.254 27.0431 330.436 23.4277C331.882 22.7046 333.906 21.4754 336.51 19.74C337.377 18.4385 339.113 16.7754 341.716 14.7508C344.174 13.5939 347.428 12.9431 351.477 12.7985C351.911 12.7985 354.297 13.2323 358.636 14.1C359.07 14.1 359.503 14.0277 359.937 13.8831C361.817 14.0277 363.119 14.3892 363.842 14.9677C364.999 16.4139 365.577 18.0769 365.577 19.9569C365.577 23.1385 364.637 25.5969 362.757 27.3323ZM386.06 89.1554C385.77 91.9031 385.626 92.5539 385.626 91.1077C385.77 92.4092 385.77 94 385.626 95.88C385.77 97.0369 385.698 98.6277 385.409 100.652C383.963 102.243 382.01 104.34 379.552 106.943C379.841 108.245 378.54 110.848 375.647 114.752C373.044 117.211 371.598 118.585 371.309 118.874C370.152 120.465 369.356 121.549 368.923 122.128C367.91 124.008 366.103 126.177 363.5 128.635C362.921 128.78 361.475 128.925 359.161 129.069L357.643 129.72C356.341 129.865 354.172 128.925 351.135 126.9C349.833 132.829 349.4 137.674 349.833 141.434C350.123 144.037 349.327 150.978 347.447 162.258C347.447 162.258 347.303 163.632 347.013 166.38C347.303 166.669 347.592 167.103 347.881 167.682C348.026 170.429 346.941 175.057 344.627 181.565C343.326 185.469 342.964 188.868 343.543 191.76H348.532C350.701 191.76 352.147 192.338 352.87 193.495C354.027 195.954 353.81 197.4 352.22 197.834C351.641 198.268 350.846 198.629 349.833 198.918C337.541 201.522 330.672 202.823 329.226 202.823L320.983 202.172C319.681 201.449 319.03 200.437 319.03 199.135C319.03 196.243 320.26 194.218 322.718 193.062C323.296 192.772 325.827 192.049 330.31 190.892C330.31 189.446 330.816 187.349 331.829 184.602C332.841 181.854 333.347 179.902 333.347 178.745C333.636 177.009 333.709 174.262 333.564 170.502C333.275 162.692 333.275 158.354 333.564 157.486C333.853 157.052 334.36 155.317 335.083 152.28C335.227 151.846 335.516 151.123 335.95 150.111C336.384 145.772 337.252 139.482 338.553 131.238C339.132 128.78 340.144 124.442 341.59 118.223C341.88 116.632 342.458 113.523 343.326 108.895C343.904 105.28 344.844 100.074 346.146 93.2769C346.58 91.6862 347.303 88.9385 348.315 85.0339C348.315 84.3108 348.098 83.5154 347.664 82.6477C345.929 84.2385 343.904 85.4677 341.59 86.3354C341.012 86.7692 340.506 87.2031 340.072 87.6369C339.349 88.0708 338.409 87.9985 337.252 87.42C337.107 86.9862 337.035 86.5523 337.035 86.1185C337.035 85.3954 338.12 84.0939 340.289 82.2139C340.433 81.9246 340.65 81.4185 340.94 80.6954C342.096 79.9723 343.976 78.4539 346.58 76.14C351.641 71.5123 356.269 68.6923 360.463 67.68C361.186 67.5354 361.836 67.7523 362.415 68.3308C362.993 68.9092 363.138 69.56 362.849 70.2831C359.667 79.2492 358.366 85.2508 358.944 88.2877C361.836 84.8169 365.813 81.7077 370.875 78.96C371.309 78.96 371.887 78.8154 372.61 78.5262C373.478 77.6585 375.069 76.5739 377.383 75.2723C377.816 75.2723 378.54 75.5615 379.552 76.14C379.986 75.9954 380.492 75.7785 381.07 75.4892C382.516 75.2 384.18 75.7785 386.06 77.2246C387.216 78.0923 387.361 79.5385 386.493 81.5631C386.06 81.9969 385.843 82.3585 385.843 82.6477C386.421 83.66 386.493 85.8292 386.06 89.1554ZM373.478 92.6262C373.189 92.0477 372.538 91.5415 371.526 91.1077C369.212 92.2646 365.741 94 361.113 96.3139C357.209 99.0615 355.04 101.375 354.606 103.255C354.461 103.689 354.244 104.123 353.955 104.557L354.172 109.546C353.449 113.306 354.461 115.692 357.209 116.705C357.787 116.126 359.378 114.897 361.981 113.017C363.861 112.005 366.464 110.052 369.79 107.16C370.369 105.714 371.02 104.123 371.743 102.388C374.346 99.2062 374.924 95.9523 373.478 92.6262ZM431.244 108.895C431.967 109.763 432.039 110.558 431.461 111.282C431.027 111.715 430.449 112.366 429.725 113.234C429.725 113.812 429.653 114.68 429.509 115.837C428.641 116.271 427.339 116.994 425.604 118.006C424.881 118.44 423.652 119.525 421.916 121.26C421.916 121.694 421.482 122.417 420.615 123.429C418.879 123.863 416.71 124.442 414.107 125.165C413.673 125.454 412.878 126.105 411.721 127.117C410.709 128.274 409.913 128.852 409.335 128.852C409.19 128.418 408.033 127.334 405.864 125.598C405.719 125.888 405.575 126.466 405.43 127.334C404.852 127.912 404.201 128.202 403.478 128.202C402.61 128.202 401.815 127.912 401.092 127.334C400.947 127.912 400.658 128.708 400.224 129.72C399.645 129.72 398.778 129.575 397.621 129.286C396.898 129.575 395.813 129.72 394.367 129.72C391.764 128.418 390.462 126.683 390.462 124.514C390.462 124.08 390.607 123.574 390.896 122.995C390.462 121.405 390.535 119.235 391.113 116.488C391.836 113.017 392.27 110.703 392.415 109.546C392.559 107.232 392.993 103.762 393.716 99.1339C394.15 98.2662 394.873 97.3985 395.885 96.5308C396.319 95.6631 397.187 94.7231 398.489 93.7108C398.199 92.8431 398.127 91.6862 398.272 90.24C400.152 88.2154 403.189 85.2508 407.382 81.3462C408.829 81.0569 410.202 79.6831 411.504 77.2246C411.793 76.5015 413.095 75.2 415.409 73.32C417.144 73.0308 419.675 72.6692 423.001 72.2354C423.001 72.6692 423.29 73.6092 423.869 75.0554C424.447 75.2 425.098 75.5615 425.821 76.14C425.821 77.2969 425.821 78.5985 425.821 80.0446C425.965 80.3339 426.182 80.6231 426.472 80.9123C426.327 80.1892 426.11 81.7077 425.821 85.4677C425.387 85.7569 424.375 86.9862 422.784 89.1554C422.784 90.1677 422.856 91.4692 423.001 93.06L419.096 96.3139C419.096 96.6031 418.879 97.1092 418.445 97.8323C417.578 97.8323 416.421 98.1939 414.975 98.9169C414.975 99.4954 414.613 100.074 413.89 100.652C412.733 101.086 410.925 101.665 408.467 102.388C408.322 102.822 408.033 103.4 407.599 104.123C407.165 104.123 406.515 104.195 405.647 104.34C404.924 104.485 404.418 104.557 404.129 104.557C403.839 106.582 403.478 109.257 403.044 112.583C402.755 112.728 402.393 113.017 401.959 113.451C402.538 114.463 403.405 115.982 404.562 118.006C405.285 117.717 406.659 117.789 408.684 118.223C409.841 117.5 411.576 116.632 413.89 115.62C415.481 115.765 418.012 115.403 421.482 114.535C422.35 113.668 423.507 112.583 424.953 111.282C425.821 111.282 427.339 110.486 429.509 108.895C429.942 108.751 430.521 108.751 431.244 108.895ZM412.805 87.8539C413.239 84.5277 412.878 82.7923 411.721 82.6477C411.287 83.3708 410.636 83.8046 409.769 83.9492H407.816C407.961 84.8169 407.672 85.7569 406.949 86.7692C406.37 87.7815 405.647 88.2877 404.779 88.2877C405.069 88.5769 405.213 88.9385 405.213 89.3723C405.213 89.9508 404.635 90.5292 403.478 91.1077C403.912 92.9877 404.129 94.0723 404.129 94.3615C403.55 95.6631 403.261 96.4585 403.261 96.7477C404.418 95.88 406.009 94.8677 408.033 93.7108L412.805 87.8539ZM496.09 99.1339C496.09 99.7123 495.728 100.652 495.005 101.954C495.005 102.388 494.933 102.822 494.788 103.255C494.065 103.834 493.197 104.629 492.185 105.642C489.582 107.955 487.846 110.052 486.979 111.932C486.545 112.655 484.882 114.752 481.99 118.223C481.7 118.078 481.266 118.151 480.688 118.44C479.82 119.308 478.519 120.537 476.783 122.128C476.494 122.272 475.699 122.489 474.397 122.778C474.108 123.068 473.746 123.429 473.313 123.863C472.156 124.297 470.565 124.658 468.54 124.948C468.251 125.092 467.962 125.309 467.673 125.598C466.516 125.743 465.793 125.743 465.503 125.598C464.491 124.731 463.045 123.429 461.165 121.694C461.165 121.26 461.093 120.682 460.948 119.958C459.936 118.512 459.574 116.994 459.863 115.403C461.02 114.68 461.454 111.932 461.165 107.16C461.02 106.871 460.876 106.582 460.731 106.292C459.863 107.015 459.285 108.245 458.996 109.98C458.851 111.571 458.345 112.655 457.477 113.234C456.61 113.812 455.019 114.391 452.705 114.969C452.85 116.415 452.054 117.862 450.319 119.308C448.728 120.609 447.21 121.26 445.763 121.26L445.33 123.863C445.185 124.152 444.173 124.514 442.293 124.948C441.859 125.526 441.28 126.177 440.557 126.9C440.123 127.045 439.545 127.045 438.822 126.9C438.677 126.611 438.46 126.177 438.171 125.598C437.448 125.02 436.508 124.008 435.351 122.562C435.062 122.128 434.917 121.405 434.917 120.392C434.917 119.38 435.062 118.151 435.351 116.705C435.496 116.415 435.713 116.054 436.002 115.62C436.002 113.017 436.363 109.98 437.086 106.509C437.52 106.22 438.677 105.497 440.557 104.34C440.702 103.906 440.774 103.4 440.774 102.822C440.774 102.243 440.63 101.375 440.34 100.218C440.051 99.0615 439.906 98.1939 439.906 97.6154C439.906 97.1815 439.979 96.82 440.123 96.5308C441.425 95.2292 443.016 93.4939 444.896 91.3246C446.053 88.4323 447.571 85.8292 449.451 83.5154C450.319 82.3585 451.765 81.6354 453.79 81.3462C455.236 78.5985 457.116 76.5015 459.43 75.0554C460.008 74.9108 460.731 74.6215 461.599 74.1877C462.033 73.6092 462.9 72.5969 464.202 71.1508C464.636 71.0062 465.286 71.0062 466.154 71.1508C466.299 71.44 466.588 71.6569 467.022 71.8015C468.034 71.5123 469.553 71.2954 471.577 71.1508C471.722 71.2954 472.083 71.6569 472.662 72.2354C473.24 72.2354 473.819 72.2354 474.397 72.2354L475.048 72.8862C475.048 73.7539 475.12 75.0554 475.265 76.7908C476.422 79.1046 476.711 80.9123 476.133 82.2139C475.41 83.66 474.397 85.3954 473.096 87.42C473.674 87.9985 473.891 89.2277 473.746 91.1077C473.457 91.3969 472.806 92.0477 471.794 93.06C471.939 92.9154 472.156 93.4939 472.445 94.7954C473.313 97.2539 472.951 99.4231 471.36 101.303C471.794 101.592 472.445 102.026 473.313 102.605C473.168 104.051 473.096 105.425 473.096 106.726C473.096 110.486 473.891 112.945 475.482 114.102C476.494 113.378 477.868 112.583 479.603 111.715C480.037 111.137 480.905 110.197 482.206 108.895L484.81 107.16C485.822 105.714 487.991 103.472 491.317 100.435C491.896 99.8569 492.619 99.2785 493.486 98.7C494.499 97.8323 495.366 97.9769 496.09 99.1339ZM462.25 101.52V89.3723C461.671 88.9385 461.31 88.7215 461.165 88.7215C460.442 90.3123 459.14 92.3369 457.26 94.7954C456.971 95.0846 456.248 95.3015 455.091 95.4462C454.079 96.6031 452.633 98.4108 450.753 100.869C450.753 101.592 450.319 102.388 449.451 103.255C449.017 105.28 448.873 106.726 449.017 107.594C450.174 108.172 451.331 108.462 452.488 108.462C454.079 108.462 455.453 107.738 456.61 106.292C457.188 105.28 457.911 103.906 458.779 102.171C459.213 102.171 459.791 102.098 460.514 101.954C461.237 101.665 461.816 101.52 462.25 101.52ZM548.449 82.6477C548.739 84.6723 548.449 86.3354 547.582 87.6369C547.437 88.0708 546.786 88.2154 545.629 88.0708C545.629 90.5292 544.689 92.0477 542.809 92.6262C541.942 92.9154 540.929 92.5539 539.772 91.5415C538.76 90.3846 538.471 89.3 538.905 88.2877C539.483 88.5769 538.471 89.0831 535.868 89.8062L534.132 90.24C533.554 90.9631 532.831 91.8308 531.963 92.8431C530.517 93.1323 528.854 94.1446 526.974 95.88C526.685 96.7477 526.323 98.0492 525.889 99.7846L524.371 101.303C523.648 101.882 523.286 102.677 523.286 103.689C523.286 104.268 523.359 104.774 523.503 105.208C522.346 107.088 520.9 109.908 519.165 113.668C519.309 114.535 519.309 115.982 519.165 118.006C519.165 118.151 518.875 118.657 518.297 119.525C517.863 120.392 517.719 121.043 517.863 121.477L518.297 123.863C517.574 125.165 516.489 126.249 515.043 127.117C513.597 128.129 511.934 129.286 510.054 130.588C509.765 130.877 509.114 130.66 508.102 129.937C507.957 128.057 507.957 125.382 508.102 121.911C508.535 120.175 508.969 117.645 509.403 114.318C509.403 114.029 509.259 113.595 508.969 113.017C508.825 112.294 508.752 111.788 508.752 111.498C508.608 110.631 508.752 109.474 509.186 108.028C509.62 106.437 509.837 105.352 509.837 104.774C510.415 101.592 510.849 97.6877 511.139 93.06C511.139 94.3615 510.994 92.9154 510.705 88.7215C508.535 90.3123 505.571 92.6985 501.811 95.88C501.377 96.0246 500.871 96.3139 500.292 96.7477C499.714 97.1815 498.919 97.76 497.906 98.4831C497.472 98.6277 496.749 98.3385 495.737 97.6154C495.448 97.3262 495.737 96.3862 496.605 94.7954C496.749 94.0723 497.039 93.2769 497.472 92.4092C498.34 91.9754 499.569 91.18 501.16 90.0231C502.606 88.2877 505.137 85.9015 508.752 82.8646C510.488 81.9969 513.019 80.4062 516.345 78.0923C518.225 76.6462 521.045 74.6939 524.805 72.2354C525.962 71.8015 526.685 72.3077 526.974 73.7539L525.889 77.0077C526.179 77.7308 526.323 78.5985 526.323 79.6108C526.323 81.4908 525.745 84.0215 524.588 87.2031C524.443 87.6369 524.154 89.2277 523.72 91.9754C525.022 91.9754 526.54 91.1077 528.275 89.3723C530.011 87.4923 531.168 85.9015 531.746 84.6C532.614 81.9969 533.699 79.8277 535 78.0923C535.723 77.8031 536.952 76.9354 538.688 75.4892H540.423C541.291 75.3446 541.942 75.2723 542.375 75.2723C542.52 75.4169 542.665 75.7062 542.809 76.14C543.966 75.9954 544.834 76.14 545.412 76.5739C545.557 76.7185 546.208 77.8754 547.365 80.0446C547.509 80.6231 547.871 81.4908 548.449 82.6477ZM591.797 108.895C592.52 109.763 592.592 110.558 592.014 111.282C591.58 111.715 591.001 112.366 590.278 113.234C590.278 113.812 590.206 114.68 590.061 115.837C589.194 116.271 587.892 116.994 586.157 118.006C585.434 118.44 584.204 119.525 582.469 121.26C582.469 121.694 582.035 122.417 581.167 123.429C579.432 123.863 577.263 124.442 574.66 125.165C574.226 125.454 573.431 126.105 572.274 127.117C571.261 128.274 570.466 128.852 569.887 128.852C569.743 128.418 568.586 127.334 566.417 125.598C566.272 125.888 566.127 126.466 565.983 127.334C565.404 127.912 564.754 128.202 564.031 128.202C563.163 128.202 562.367 127.912 561.644 127.334C561.5 127.912 561.211 128.708 560.777 129.72C560.198 129.72 559.331 129.575 558.174 129.286C557.451 129.575 556.366 129.72 554.92 129.72C552.317 128.418 551.015 126.683 551.015 124.514C551.015 124.08 551.16 123.574 551.449 122.995C551.015 121.405 551.087 119.235 551.666 116.488C552.389 113.017 552.823 110.703 552.967 109.546C553.112 107.232 553.546 103.762 554.269 99.1339C554.703 98.2662 555.426 97.3985 556.438 96.5308C556.872 95.6631 557.74 94.7231 559.041 93.7108C558.752 92.8431 558.68 91.6862 558.824 90.24C560.704 88.2154 563.741 85.2508 567.935 81.3462C569.381 81.0569 570.755 79.6831 572.057 77.2246C572.346 76.5015 573.647 75.2 575.961 73.32C577.697 73.0308 580.227 72.6692 583.554 72.2354C583.554 72.6692 583.843 73.6092 584.421 75.0554C585 75.2 585.651 75.5615 586.374 76.14C586.374 77.2969 586.374 78.5985 586.374 80.0446C586.518 80.3339 586.735 80.6231 587.024 80.9123C586.88 80.1892 586.663 81.7077 586.374 85.4677C585.94 85.7569 584.927 86.9862 583.337 89.1554C583.337 90.1677 583.409 91.4692 583.554 93.06L579.649 96.3139C579.649 96.6031 579.432 97.1092 578.998 97.8323C578.131 97.8323 576.974 98.1939 575.527 98.9169C575.527 99.4954 575.166 100.074 574.443 100.652C573.286 101.086 571.478 101.665 569.02 102.388C568.875 102.822 568.586 103.4 568.152 104.123C567.718 104.123 567.067 104.195 566.2 104.34C565.477 104.485 564.971 104.557 564.681 104.557C564.392 106.582 564.031 109.257 563.597 112.583C563.307 112.728 562.946 113.017 562.512 113.451C563.091 114.463 563.958 115.982 565.115 118.006C565.838 117.717 567.212 117.789 569.237 118.223C570.394 117.5 572.129 116.632 574.443 115.62C576.034 115.765 578.564 115.403 582.035 114.535C582.903 113.668 584.06 112.583 585.506 111.282C586.374 111.282 587.892 110.486 590.061 108.895C590.495 108.751 591.074 108.751 591.797 108.895ZM573.358 87.8539C573.792 84.5277 573.431 82.7923 572.274 82.6477C571.84 83.3708 571.189 83.8046 570.321 83.9492H568.369C568.514 84.8169 568.224 85.7569 567.501 86.7692C566.923 87.7815 566.2 88.2877 565.332 88.2877C565.621 88.5769 565.766 88.9385 565.766 89.3723C565.766 89.9508 565.187 90.5292 564.031 91.1077C564.464 92.9877 564.681 94.0723 564.681 94.3615C564.103 95.6631 563.814 96.4585 563.814 96.7477C564.971 95.88 566.561 94.8677 568.586 93.7108L573.358 87.8539ZM126.249 327.062C126.538 328.363 125.888 331.038 124.297 335.088C121.983 337.112 118.946 340.222 115.186 344.415C114.897 344.415 114.608 344.415 114.318 344.415C113.306 345.717 111.788 347.597 109.763 350.055C108.317 351.212 106.654 352.08 104.774 352.658C102.46 353.382 100.725 353.092 99.5677 351.791C98.9892 352.225 98.0493 352.948 96.7477 353.96C95.88 354.249 94.94 354.249 93.9277 353.96C92.6262 353.382 90.6016 351.863 87.8539 349.405V348.103C87.9985 347.814 88.4323 347.525 89.1554 347.235C89.0108 346.078 89.8785 344.777 91.7585 343.331C91.9031 343.042 92.0477 342.68 92.1923 342.246C92.9154 341.378 94 340.222 95.4462 338.775C95.7354 338.631 96.0969 338.558 96.5308 338.558C96.5308 338.125 98.0493 337.257 101.086 335.955L103.689 333.352C105.858 332.918 107.015 331.906 107.16 330.315V321.638C106.437 319.614 104.991 316.577 102.822 312.528C102.532 312.238 101.665 311.949 100.218 311.66C96.6031 310.648 94.2169 310.865 93.06 312.311C93.06 316.794 93.2769 318.457 93.7108 317.3C92.8431 320.626 92.4816 322.434 92.6262 322.723C93.3492 324.748 93.6385 325.832 93.4939 325.977C93.06 326.411 92.5539 327.206 91.9754 328.363C91.5416 329.52 91.2523 330.822 91.1077 332.268C90.5292 332.991 89.5169 334.148 88.0708 335.738C88.0708 338.486 88.2154 339.498 88.5046 338.775C88.0708 339.065 87.5646 339.643 86.9862 340.511C86.4077 341.957 85.8292 343.258 85.2508 344.415C84.6723 344.994 84.3108 346.006 84.1662 347.452C83.4431 348.609 82.5031 350.345 81.3462 352.658C81.3462 353.526 81.2739 354.9 81.1292 356.78C80.9846 357.069 80.84 357.431 80.6954 357.865C80.5508 358.298 80.4062 359.022 80.2616 360.034C79.3939 361.335 78.2369 363.36 76.7908 366.108C76.9354 367.265 76.9354 368.783 76.7908 370.663C76.0677 371.965 75.2 374.134 74.1877 377.171C74.3323 377.749 74.1877 378.545 73.7539 379.557C73.4646 380.425 73.1031 381.437 72.6692 382.594C72.38 383.751 72.0908 385.342 71.8016 387.366C71.3677 387.945 70.8616 388.812 70.2831 389.969C71.44 390.837 72.7416 391.271 74.1877 391.271C75.3446 390.837 76.9354 390.114 78.96 389.102C79.5385 389.102 80.4062 389.029 81.5631 388.885C81.9969 388.451 82.5754 387.8 83.2985 386.932C83.8769 386.643 85.7569 387.222 88.9385 388.668L89.8062 393.874C89.2277 394.308 88.6492 395.103 88.0708 396.26C87.6369 398.14 87.2031 399.369 86.7692 399.948C85.1785 399.948 83.5154 400.526 81.78 401.683C80.9123 401.828 79.3939 401.828 77.2246 401.683C76.9354 401.249 76.3569 400.743 75.4892 400.165C76.3569 400.454 73.9708 400.743 68.3308 401.032C68.0416 401.177 67.68 401.394 67.2462 401.683C64.6431 401.828 62.7631 401.828 61.6062 401.683C60.8831 401.249 59.6539 400.671 57.9185 399.948C58.4969 400.092 57.8462 400.382 55.9662 400.815C54.6646 400.96 52.2062 400.815 48.5908 400.382C46.5662 401.105 45.6262 401.538 45.7708 401.683H32.5385C31.8154 400.526 31.0923 399.948 30.3692 399.948H28.2L27.7662 399.514C27.7662 397.923 27.9831 396.983 28.4169 396.694C28.1277 396.115 28.0554 395.465 28.2 394.742C28.4892 393.729 29.7908 392.572 32.1046 391.271C32.9723 390.548 34.1292 389.535 35.5754 388.234C36.2985 387.8 37.3108 387.945 38.6123 388.668C40.0585 389.246 40.7092 389.897 40.5646 390.62C40.7092 390.62 40.9985 390.548 41.4323 390.403C41.8662 390.258 42.2277 390.186 42.5169 390.186H50.9769C51.5554 389.752 51.9169 389.391 52.0616 389.102C51.7723 388.234 52.0616 386.86 52.9292 384.98C52.64 384.112 52.4954 383.389 52.4954 382.811C52.4954 380.931 53.4354 379.412 55.3154 378.255C55.7492 378.111 56.3277 377.677 57.0508 376.954C56.7616 376.52 56.7616 375.725 57.0508 374.568C57.1954 373.555 57.4846 372.471 57.9185 371.314C58.3523 370.735 58.9308 369.868 59.6539 368.711C59.6539 367.554 59.7262 366.035 59.8708 364.155C60.16 363.577 60.4492 362.926 60.7385 362.203C61.3169 360.178 62.8354 357.069 65.2939 352.875C65.2939 352.297 65.3662 351.429 65.5108 350.272C66.3785 348.971 67.6077 346.44 69.1985 342.68C69.1985 338.486 70.6446 334.871 73.5369 331.834C74.4046 330.966 75.2 328.942 75.9231 325.76C76.6462 324.458 77.5139 322.651 78.5262 320.337C78.6708 318.312 79.1046 314.697 79.8277 309.491C80.1169 306.888 80.4785 305.948 80.9123 306.671C80.6231 306.382 80.0446 306.237 79.1769 306.237C78.4539 306.237 77.4416 306.382 76.14 306.671H61.6062C61.4616 306.671 61.1 306.888 60.5216 307.322C60.0877 307.755 59.7985 307.972 59.6539 307.972C59.22 308.117 58.3523 308.117 57.0508 307.972C56.7616 307.828 56.4 307.611 55.9662 307.322C54.8092 307.322 52.9292 307.177 50.3262 306.888C49.8923 307.611 47.2892 308.262 42.5169 308.84C42.2277 309.129 41.7216 309.418 40.9985 309.708C39.2631 309.997 36.7323 310.503 33.4062 311.226C32.5385 311.805 31.3092 312.6 29.7185 313.612C25.9585 313.612 23.7169 315.131 22.9939 318.168C22.8492 318.602 22.8492 319.035 22.9939 319.469C23.7169 320.626 24.6569 322.362 25.8139 324.675C25.6692 325.977 25.7416 327.568 26.0308 329.448C26.8985 330.894 28.0554 332.991 29.5016 335.738C29.5016 336.462 29.6462 337.402 29.9354 338.558C30.3692 339.715 30.5862 340.728 30.5862 341.595C30.5862 342.174 30.4416 342.68 30.1523 343.114C28.8508 343.258 28.1277 342.897 27.9831 342.029C27.6939 342.897 27.26 343.331 26.6816 343.331H24.9462C24.5123 343.62 24.0785 343.982 23.6446 344.415C22.1985 344.56 20.4631 344.415 18.4385 343.982C17.86 344.271 16.92 344.415 15.6185 344.415C14.8954 343.403 13.8108 342.174 12.3646 340.728C11.7862 340.583 11.0631 340.294 10.1954 339.86C3.39848 333.063 0.289247 329.014 0.867709 327.712L2.38617 325.109C2.24156 324.386 2.09694 323.302 1.95232 321.855C3.68771 319.686 6.07386 317.011 9.11079 313.829C9.2554 313.685 9.83386 313.54 10.8462 313.395C11.28 312.817 11.7862 311.805 12.3646 310.358C12.6539 310.214 13.0877 309.997 13.6662 309.708C14.5339 308.406 15.8354 306.743 17.5708 304.718C18.0046 304.285 22.7046 303.417 31.6708 302.115C32.2492 301.392 33.2616 300.38 34.7077 299.078C35.72 298.645 36.5877 298.428 37.3108 298.428H45.9877C45.8431 298.428 46.4216 298.066 47.7231 297.343C49.7477 296.909 51.4108 296.692 52.7123 296.692C54.0139 296.692 54.9539 296.909 55.5323 297.343C56.4 296.186 57.8462 294.668 59.8708 292.788C60.5939 292.788 61.6785 292.571 63.1246 292.137C63.8477 291.848 64.86 291.414 66.1616 290.835C66.3062 290.546 66.6677 290.185 67.2462 289.751C67.9692 289.606 68.7646 289.606 69.6323 289.751C69.7769 289.895 70.0662 290.402 70.5 291.269C71.5123 291.558 73.1754 291.775 75.4892 291.92L86.5523 291.052C86.8416 291.342 87.2031 291.631 87.6369 291.92C89.0831 291.775 91.3969 291.848 94.5785 292.137C95.0123 292.137 95.7354 292.065 96.7477 291.92C97.76 291.486 99.3508 291.558 101.52 292.137C102.388 292.282 103.762 292.498 105.642 292.788C106.075 293.366 106.871 293.945 108.028 294.523C110.342 295.102 112.8 296.548 115.403 298.862C118.006 301.175 119.308 303.417 119.308 305.586C121.911 308.334 123.212 309.997 123.212 310.575V318.168C123.212 318.023 123.357 318.168 123.646 318.602C124.08 319.903 124.948 322.723 126.249 327.062ZM161.203 364.155C161.203 365.891 160.986 368.494 160.552 371.965C159.25 373.845 157.949 375.797 156.647 377.822C155.346 379.846 152.164 383.751 147.103 389.535L146.669 390.62C145.801 391.343 144.572 392.283 142.981 393.44C142.403 393.585 141.535 393.946 140.378 394.525C139.8 395.537 138.787 396.694 137.341 397.995C136.04 399.297 133.943 400.598 131.05 401.9C130.327 402.045 128.953 402.045 126.929 401.9C125.483 401.611 124.181 400.02 123.024 397.128C121.144 392.5 120.421 387.149 120.855 381.075C121.433 380.063 122.157 378.545 123.024 376.52C123.169 375.652 123.313 374.351 123.458 372.615C123.892 371.458 125.049 369.289 126.929 366.108C127.218 365.818 128.158 364.878 129.749 363.288C135.533 357.503 138.787 353.671 139.51 351.791C139.655 351.646 139.872 351.429 140.161 351.14C141.607 348.103 143.198 346.368 144.933 345.934C145.946 345.645 147.03 345.645 148.187 345.934C155.852 348.248 160.19 352.152 161.203 357.648V364.155ZM150.14 366.108C149.995 365.24 149.706 364.3 149.272 363.288C147.826 360.251 146.09 358.66 144.066 358.515C141.318 360.54 139.293 362.348 137.992 363.938C137.558 364.806 136.907 365.963 136.04 367.409C135.172 368.277 134.015 369.578 132.569 371.314C132.569 371.603 132.713 372.037 133.003 372.615C133.292 373.194 133.437 373.555 133.437 373.7C133.581 374.857 133.798 376.375 134.087 378.255C135.678 381.582 137.558 383.823 139.727 384.98C140.306 384.98 141.969 383.823 144.717 381.509C145.584 381.075 146.597 380.352 147.753 379.34C148.043 377.749 148.621 374.929 149.489 370.88C149.923 367.988 150.14 366.397 150.14 366.108ZM207.076 383.895C207.799 384.763 207.871 385.558 207.293 386.282C206.859 386.715 206.281 387.366 205.558 388.234C205.558 388.812 205.485 389.68 205.341 390.837C204.473 391.271 203.171 391.994 201.436 393.006C200.713 393.44 199.484 394.525 197.748 396.26C197.748 396.694 197.314 397.417 196.447 398.429C194.711 398.863 192.542 399.442 189.939 400.165C189.505 400.454 188.71 401.105 187.553 402.117C186.541 403.274 185.745 403.852 185.167 403.852C185.022 403.418 183.865 402.334 181.696 400.598C181.551 400.888 181.407 401.466 181.262 402.334C180.684 402.912 180.033 403.202 179.31 403.202C178.442 403.202 177.647 402.912 176.924 402.334C176.779 402.912 176.49 403.708 176.056 404.72C175.478 404.72 174.61 404.575 173.453 404.286C172.73 404.575 171.645 404.72 170.199 404.72C167.596 403.418 166.294 401.683 166.294 399.514C166.294 399.08 166.439 398.574 166.728 397.995C166.294 396.405 166.367 394.235 166.945 391.488C167.668 388.017 168.102 385.703 168.247 384.546C168.391 382.232 168.825 378.762 169.548 374.134C169.982 373.266 170.705 372.398 171.718 371.531C172.151 370.663 173.019 369.723 174.321 368.711C174.031 367.843 173.959 366.686 174.104 365.24C175.984 363.215 179.021 360.251 183.214 356.346C184.661 356.057 186.034 354.683 187.336 352.225C187.625 351.502 188.927 350.2 191.241 348.32C192.976 348.031 195.507 347.669 198.833 347.235C198.833 347.669 199.122 348.609 199.701 350.055C200.279 350.2 200.93 350.562 201.653 351.14C201.653 352.297 201.653 353.598 201.653 355.045C201.798 355.334 202.014 355.623 202.304 355.912C202.159 355.189 201.942 356.708 201.653 360.468C201.219 360.757 200.207 361.986 198.616 364.155C198.616 365.168 198.688 366.469 198.833 368.06L194.928 371.314C194.928 371.603 194.711 372.109 194.278 372.832C193.41 372.832 192.253 373.194 190.807 373.917C190.807 374.495 190.445 375.074 189.722 375.652C188.565 376.086 186.758 376.665 184.299 377.388C184.154 377.822 183.865 378.4 183.431 379.123C182.998 379.123 182.347 379.195 181.479 379.34C180.756 379.485 180.25 379.557 179.961 379.557C179.671 381.582 179.31 384.257 178.876 387.583C178.587 387.728 178.225 388.017 177.791 388.451C178.37 389.463 179.238 390.982 180.394 393.006C181.118 392.717 182.491 392.789 184.516 393.223C185.673 392.5 187.408 391.632 189.722 390.62C191.313 390.765 193.844 390.403 197.314 389.535C198.182 388.668 199.339 387.583 200.785 386.282C201.653 386.282 203.171 385.486 205.341 383.895C205.774 383.751 206.353 383.751 207.076 383.895ZM188.638 362.854C189.071 359.528 188.71 357.792 187.553 357.648C187.119 358.371 186.468 358.805 185.601 358.949H183.648C183.793 359.817 183.504 360.757 182.781 361.769C182.202 362.782 181.479 363.288 180.611 363.288C180.901 363.577 181.045 363.938 181.045 364.372C181.045 364.951 180.467 365.529 179.31 366.108C179.744 367.988 179.961 369.072 179.961 369.362C179.382 370.663 179.093 371.458 179.093 371.748C180.25 370.88 181.841 369.868 183.865 368.711L188.638 362.854ZM252.182 352.875C252.76 354.9 251.675 356.491 248.928 357.648C249.072 358.66 249.145 359.672 249.145 360.685C247.843 361.263 246.469 361.408 245.023 361.118C243.866 360.829 242.637 360.395 241.335 359.817C241.046 359.962 240.468 360.54 239.6 361.552C239.022 360.829 238.298 360.106 237.431 359.383C235.551 359.238 233.743 358.877 232.008 358.298C231.863 358.877 230.778 360.612 228.754 363.505C229.188 364.662 229.549 365.818 229.838 366.975C229.694 367.409 229.477 367.843 229.188 368.277C229.332 369 229.405 370.012 229.405 371.314C227.814 372.905 227.163 374.64 227.452 376.52C227.452 376.665 227.525 376.882 227.669 377.171C227.814 378.038 227.308 379.774 226.151 382.377C226.006 383.389 226.151 384.474 226.585 385.631C226.729 385.775 227.091 386.137 227.669 386.715C227.814 389.463 227.886 390.765 227.886 390.62C228.32 390.62 228.826 390.62 229.405 390.62C230.706 392.066 232.08 392.789 233.526 392.789C234.249 392.355 235.406 391.705 236.997 390.837C237.575 390.837 238.443 390.765 239.6 390.62C240.034 389.897 240.902 389.102 242.203 388.234C243.071 387.945 244.517 387.077 246.542 385.631H247.843C248.422 386.065 248.566 386.426 248.277 386.715C247.12 387.872 245.312 389.463 242.854 391.488C242.709 391.777 242.492 392.355 242.203 393.223C240.757 394.814 238.66 397.417 235.912 401.032C235.334 401.032 234.611 400.888 233.743 400.598C233.02 401.322 231.285 401.611 228.537 401.466C227.958 402.189 227.091 403.129 225.934 404.286C225.5 404.431 224.849 404.72 223.982 405.154C223.548 405.298 223.186 405.298 222.897 405.154C222.608 404.431 221.957 403.491 220.945 402.334C218.342 404.937 216.534 406.022 215.522 405.588C214.798 404.575 213.642 403.202 212.051 401.466C211.472 400.454 212.123 398.212 214.003 394.742C213.569 393.151 213.352 392.428 213.352 392.572C214.365 391.271 214.943 390.258 215.088 389.535C214.22 387.222 213.931 385.703 214.22 384.98C214.509 384.257 215.088 383.317 215.955 382.16C215.811 381.871 215.377 380.28 214.654 377.388C215.666 376.665 216.895 375.652 218.342 374.351C218.631 374.062 218.631 373.266 218.342 371.965C218.631 371.386 218.848 370.446 218.992 369.145C218.558 367.12 218.342 366.108 218.342 366.108C218.486 365.674 219.715 364.445 222.029 362.42C221.885 362.131 221.74 361.48 221.595 360.468C220.872 359.166 219.932 357.503 218.775 355.478C218.197 355.334 217.257 355.768 215.955 356.78C214.943 356.346 213.425 355.84 211.4 355.262C211.255 354.972 211.183 354.538 211.183 353.96C213.063 352.225 213.931 350.923 213.786 350.055C214.22 349.332 214.726 348.971 215.305 348.971C216.172 348.971 217.112 349.911 218.125 351.791C220.728 350.634 222.246 350.055 222.68 350.055C223.258 348.898 224.054 347.018 225.066 344.415C225.211 343.403 225.5 342.102 225.934 340.511C226.512 339.932 227.38 338.92 228.537 337.474C228.537 337.04 228.682 336.317 228.971 335.305C229.26 334.292 229.405 333.569 229.405 333.135C229.405 332.991 229.188 332.557 228.754 331.834C228.465 330.966 228.392 330.388 228.537 330.098C230.128 328.797 231.935 326.7 233.96 323.808C233.671 321.928 233.96 319.325 234.828 315.998C238.154 311.805 240.612 309.78 242.203 309.925C242.492 310.214 242.782 311.082 243.071 312.528C243.794 312.238 244.372 312.094 244.806 312.094C245.095 312.238 245.312 312.455 245.457 312.745C245.457 313.323 244.228 315.637 241.769 319.686C242.058 320.265 241.842 321.132 241.118 322.289C241.697 322.868 241.986 323.518 241.986 324.242C241.986 324.965 241.408 326.122 240.251 327.712C239.238 329.303 238.66 330.46 238.515 331.183C238.66 330.749 238.877 332.051 239.166 335.088C237.72 336.534 236.346 338.631 235.045 341.378C235.189 342.391 235.262 343.403 235.262 344.415C235.117 345.572 234.538 346.657 233.526 347.669C233.96 348.392 234.9 348.898 236.346 349.188C237.792 349.332 238.732 349.838 239.166 350.706C240.468 348.971 242.058 348.103 243.938 348.103L249.578 348.754C250.157 349.622 251.025 350.995 252.182 352.875ZM306.106 357.648C306.395 359.672 306.106 361.335 305.238 362.637C305.093 363.071 304.443 363.215 303.286 363.071C303.286 365.529 302.346 367.048 300.466 367.626C299.598 367.915 298.586 367.554 297.429 366.542C296.416 365.385 296.127 364.3 296.561 363.288C297.139 363.577 296.127 364.083 293.524 364.806L291.789 365.24C291.21 365.963 290.487 366.831 289.619 367.843C288.173 368.132 286.51 369.145 284.63 370.88C284.341 371.748 283.979 373.049 283.546 374.785L282.027 376.303C281.304 376.882 280.943 377.677 280.943 378.689C280.943 379.268 281.015 379.774 281.159 380.208C280.003 382.088 278.556 384.908 276.821 388.668C276.966 389.535 276.966 390.982 276.821 393.006C276.821 393.151 276.532 393.657 275.953 394.525C275.519 395.392 275.375 396.043 275.519 396.477L275.953 398.863C275.23 400.165 274.146 401.249 272.699 402.117C271.253 403.129 269.59 404.286 267.71 405.588C267.421 405.877 266.77 405.66 265.758 404.937C265.613 403.057 265.613 400.382 265.758 396.911C266.192 395.175 266.626 392.645 267.059 389.318C267.059 389.029 266.915 388.595 266.626 388.017C266.481 387.294 266.409 386.788 266.409 386.498C266.264 385.631 266.409 384.474 266.843 383.028C267.276 381.437 267.493 380.352 267.493 379.774C268.072 376.592 268.506 372.688 268.795 368.06C268.795 369.362 268.65 367.915 268.361 363.722C266.192 365.312 263.227 367.698 259.467 370.88C259.033 371.025 258.527 371.314 257.949 371.748C257.37 372.182 256.575 372.76 255.563 373.483C255.129 373.628 254.406 373.338 253.393 372.615C253.104 372.326 253.393 371.386 254.261 369.795C254.406 369.072 254.695 368.277 255.129 367.409C255.996 366.975 257.226 366.18 258.816 365.023C260.263 363.288 262.793 360.902 266.409 357.865C268.144 356.997 270.675 355.406 274.001 353.092C275.881 351.646 278.701 349.694 282.461 347.235C283.618 346.802 284.341 347.308 284.63 348.754L283.546 352.008C283.835 352.731 283.979 353.598 283.979 354.611C283.979 356.491 283.401 359.022 282.244 362.203C282.099 362.637 281.81 364.228 281.376 366.975C282.678 366.975 284.196 366.108 285.932 364.372C287.667 362.492 288.824 360.902 289.403 359.6C290.27 356.997 291.355 354.828 292.656 353.092C293.379 352.803 294.609 351.935 296.344 350.489H298.079C298.947 350.345 299.598 350.272 300.032 350.272C300.176 350.417 300.321 350.706 300.466 351.14C301.623 350.995 302.49 351.14 303.069 351.574C303.213 351.718 303.864 352.875 305.021 355.045C305.166 355.623 305.527 356.491 306.106 357.648ZM394.139 357.865C393.127 358.588 391.536 359.889 389.367 361.769C389.078 363.071 386.908 365.168 382.859 368.06C381.558 368.638 379.605 369.651 377.002 371.097C375.99 371.965 374.616 373.266 372.881 375.002C373.025 375.869 373.098 376.954 373.098 378.255C372.374 378.978 371.507 379.918 370.494 381.075C369.482 383.245 368.687 385.342 368.108 387.366C368.253 387.945 368.181 388.812 367.891 389.969C367.024 391.126 365.722 393.151 363.987 396.043C363.842 396.766 363.553 397.923 363.119 399.514C362.83 400.092 362.396 400.96 361.818 402.117C361.818 403.274 361.673 404.937 361.384 407.106C359.648 408.842 358.636 410.722 358.347 412.746C358.058 414.915 357.624 417.952 357.045 421.857C357.19 422.58 357.19 423.737 357.045 425.328L355.527 426.846C354.804 427.425 353.719 429.015 352.273 431.618C351.984 433.788 350.899 437.258 349.019 442.031C349.453 443.477 349.598 444.489 349.453 445.068C346.416 448.249 342.801 453.022 338.607 459.385C338.462 460.542 338.318 462.06 338.173 463.94C337.739 464.952 337.233 466.543 336.654 468.712L335.57 469.58C335.57 470.158 335.57 470.882 335.57 471.749C332.533 476.522 329.568 480.498 326.676 483.68C325.23 484.692 323.205 486.355 320.602 488.669C319.734 489.682 318.144 491.778 315.83 494.96C315.251 495.828 314.022 497.418 312.142 499.732C310.551 501.323 308.165 503.782 304.984 507.108C304.116 508.409 302.525 510.362 300.211 512.965C299.199 513.688 297.753 514.555 295.873 515.568C295.005 516.002 293.776 516.508 292.185 517.086C290.594 518.388 288.425 519.978 285.678 521.858C285.099 522.292 283.219 522.726 280.038 523.16C279.459 523.594 278.591 524.1 277.434 524.678H274.614C271.867 524.678 271.144 524.751 272.445 524.895C270.565 524.606 269.842 524.389 270.276 524.245C269.408 524.678 268.034 525.112 266.154 525.546C265.287 525.546 263.985 525.763 262.25 526.197C261.671 527.065 260.659 528.005 259.213 529.017C257.044 529.451 255.525 529.162 254.658 528.149C254.368 528.005 253.934 527.788 253.356 527.498C251.91 527.788 249.813 527.498 247.065 526.631C246.776 526.631 246.053 526.775 244.896 527.065C243.739 527.498 242.727 527.643 241.859 527.498C240.991 526.486 239.328 525.329 236.87 524.028C237.448 524.317 236.436 524.606 233.833 524.895C234.845 524.751 233.544 524.462 229.928 524.028C228.627 524.028 227.253 524.245 225.807 524.678C225.373 524.678 224.433 523.522 222.987 521.208C222.264 521.208 221.179 520.918 219.733 520.34C218.576 519.038 216.841 517.158 214.527 514.7C212.647 513.398 210.333 510.94 207.585 507.325C207.585 506.891 207.224 505.662 206.501 503.637C206.211 502.769 206.284 502.046 206.718 501.468C207.73 500.889 209.031 500.166 210.622 499.298C212.791 497.418 214.671 496.478 216.262 496.478C216.841 496.478 217.419 496.623 217.998 496.912C219.588 497.925 221.974 499.298 225.156 501.034C226.313 501.323 227.976 502.118 230.145 503.42C231.447 504.866 233.471 506.891 236.219 509.494C245.185 513.254 253.284 515.64 260.514 516.652C265.142 516.652 271.505 515.568 279.604 513.398C280.182 512.965 280.978 512.458 281.99 511.88C290.088 508.698 296.668 504.649 301.73 499.732C304.333 496.262 308.31 491.2 313.661 484.548C315.107 483.391 317.204 481.438 319.951 478.691C320.385 477.389 321.181 475.582 322.338 473.268C323.494 472.111 324.724 470.303 326.025 467.845C326.748 465.386 328.339 462.928 330.798 460.469L336.221 454.829C335.787 452.226 335.57 451.214 335.57 451.792C336.004 451.069 336.582 449.84 337.305 448.105C338.028 446.514 338.896 444.128 339.908 440.946C340.631 439.5 341.716 437.403 343.162 434.655C343.018 434.222 342.873 433.788 342.728 433.354C342.584 431.474 343.741 428.871 346.199 425.545C347.067 424.243 347.718 422.508 348.151 420.338C348.007 419.905 348.007 419.109 348.151 417.952C348.441 417.229 348.874 416.289 349.453 415.132C349.164 414.265 349.019 412.963 349.019 411.228C349.742 408.191 350.827 405.371 352.273 402.768C353.141 402.189 354.37 400.96 355.961 399.08C356.973 397.345 357.841 394.742 358.564 391.271C358.708 390.692 357.696 389.318 355.527 387.149C355.093 387.583 354.442 388.017 353.574 388.451C353.285 389.318 352.779 390.403 352.056 391.705V393.874C350.754 394.163 349.959 394.018 349.67 393.44C348.513 392.138 347.139 390.114 345.548 387.366V385.631C345.259 384.618 344.898 383.823 344.464 383.245C343.307 382.232 342.584 380.642 342.294 378.472C342.005 376.303 341.716 374.857 341.427 374.134C339.258 369.362 337.233 367.048 335.353 367.192C334.341 368.06 333.184 368.928 331.882 369.795C331.448 370.085 330.653 369.94 329.496 369.362C328.339 368.783 327.688 368.494 327.544 368.494C326.098 368.783 323.278 369.94 319.084 371.965C317.204 373.555 313.878 375.652 309.105 378.255C308.527 377.966 307.948 377.677 307.37 377.388C308.238 372.326 311.636 368.277 317.565 365.24C318.722 364.517 320.313 363.577 322.338 362.42C323.35 362.42 324.724 362.203 326.459 361.769C327.616 360.902 329.351 359.6 331.665 357.865C332.388 357.72 333.328 357.358 334.485 356.78C334.774 356.346 335.425 355.623 336.438 354.611C336.727 354.611 337.088 354.538 337.522 354.394C338.679 354.249 340.631 354.032 343.379 353.743C346.561 353.309 349.019 355.045 350.754 358.949C351.044 361.118 351.55 364.155 352.273 368.06C352.851 369.217 353.502 370.808 354.225 372.832C354.948 375.725 355.527 377.532 355.961 378.255C356.684 379.991 357.913 381.654 359.648 383.245C360.227 382.666 360.805 381.582 361.384 379.991C360.805 378.978 360.516 378.038 360.516 377.171C360.516 376.303 360.805 375.435 361.384 374.568L363.553 373.7C364.854 372.688 365.867 371.386 366.59 369.795C366.59 368.349 366.807 366.18 367.241 363.288C367.964 362.709 368.904 361.552 370.061 359.817C369.916 358.949 369.988 357.575 370.278 355.695C371.001 352.803 372.591 350.923 375.05 350.055C374.761 350.2 374.616 350.345 374.616 350.489C374.905 350.634 375.918 350.706 377.653 350.706C379.099 350.706 380.039 350.634 380.473 350.489C380.907 350.2 381.485 350.055 382.208 350.055C383.076 350.055 383.944 350.345 384.811 350.923C385.679 350.489 386.33 350.128 386.764 349.838C387.776 349.694 388.499 349.766 388.933 350.055C390.09 351.357 391.825 353.237 394.139 355.695C394.428 355.985 394.428 356.708 394.139 357.865Z" fill="#EAB580"/>
</svg>
